M48
;Layer_Color=9474304
;FILE_FORMAT=2:5
INCH,LZ
;TYPE=PLATED
T1F00S00C0.02000
T2F00S00C0.07874
T3F00S00C0.15000
%
T01
X01345Y-02495
X00945Y-01995
X00895Y-01945
X00795
X00845Y-01995
X00795Y-02045
X00895
X-0005Y-0165
Y-00925
X-0045Y-01
X0035
X016Y-0115
X02175
X00995Y-01945
Y-02045
X01Y-00425
Y002
X01675Y00225
X00675Y00725
X-0005Y00675
X-00475Y0025
X-00525Y-00325
X-0005Y-00225
X00225Y0
X00425Y-00325
X-011Y-00425
X-01125Y002
X-018Y0025
X-0075Y00625
X-00675Y012
X-011Y01325
X-01125Y01975
X-01775Y0165
X-02075Y00975
X-01425Y008
X-00475Y0095
X-0005Y01325
X00275Y012
X00375Y0095
X0035Y01775
X-0045
X01Y01975
Y01325
X01275Y008
X0195Y00975
X01675Y0165
T02
X0091862Y-0269894
T03
X023Y-028
X-023
X023Y028
X-023
M30
